<svg xmlns="http://www.w3.org/2000/svg" viewBox="0 0 1080 1080"><path d="M1122 1397v284.7H42v-263.5l150 10.7 75 58.3 75 21.2 45 100.8 195 21.2 195-21.2 15-53 30-90.2 105-15.9 90-53.1M682.7 434.1l56.5-53.6-74.7-27v-82.8l18.2 6.6 56.5-53.6-74.7-27V0H403.2v102.5l-65.8-23.8 8.9 77.4 56.9 20.5v82.6l-65.8-23.8 8.9 77.4 56.9 20.5v82.6l-65.8-23.8 8.9 77.4 56.9 20.5v82.9l-65.8-23.8 8.9 77.4 56.9 20.5v94.1L533.8 871l130.6-129.6 18.2 6.6 56.5-53.6-74.7-27v-83.1l18.2 6.6 56.5-53.6-74.7-27v-82.8l18.3 6.6zm-148.9 363l-78.4-77.3v-53.7l154.7 55.7-76.3 75.3zm78.4-148.5L455.5 592v-83l156.8 56.5v83.1zm0-157.1l-156.8-56.6v-82.7l156.8 56.5v82.8zm0-156.8l-156.8-56.6v-82.7L612.2 252v82.7zm0-156.7l-156.8-56.6V52.3h156.8V178zM615.6 879.5l-121.7 139.9 54.6 45.1 188.3-2.9L758 950.1M60.5 899.4l307.8 20.8 78 77.3 14.1 66H12.1V940M960 893.2l-140 48.1-27.1 109.5h270.6l-33.5-143M117.6 858.1l214.9 16.6 22.3-62.1-43.5-75.1-91.5 7.5-53 58.4M792.9 728l142.8 8.6L950 857.1l-152.2 27.1"/></svg>