<svg xmlns="http://www.w3.org/2000/svg" viewBox="0 0 1080 1080"><path d="M21.1 874.5V1030h214.1V929.8h51.1V1030h47.6V874.5H21.1zm150.2 107.7H54.4v-75h116.9v75zM800.5 449.1v583.7h279.4V449.1H800.5zm111.6 465.1h-56.6v-56.6h56.6v56.6zm0-124.9h-56.6v-56.6h56.6v56.6zm0-126.1h-56.6v-56.6h56.6v56.6zm0-116h-56.6v-56.6h56.6v56.6zm107.2 367h-56.6v-56.6h56.6v56.6zm0-124.9h-56.6v-56.6h56.6v56.6zm0-126.1h-56.6v-56.6h56.6v56.6zm0-116h-56.6v-56.6h56.6v56.6zM405.4 185.4v854.4h325.7V185.4H405.4zm137.5 735.8h-56.6v-56.6h56.6v56.6zm0-124.9h-56.6v-56.6h56.6v56.6zm0-128.4h-56.6v-56.6h56.6v56.6zm0-124.9h-56.6v-56.6h56.6V543zm0-126.1h-56.6v-56.6h56.6v56.6zm0-116h-56.6v-56.6h56.6v56.6zm107.2 620.3h-56.6v-56.6h56.6v56.6zm0-124.9h-56.6v-56.6h56.6v56.6zm0-128.4h-56.6v-56.6h56.6v56.6zm0-124.9h-56.6v-56.6h56.6V543zm0-126.1h-56.6v-56.6h56.6v56.6zm0-116h-56.6v-56.6h56.6v56.6zM37.7 720.4L2 840.2h351.1l-45.5-119.8"/><path d="M109.3 903h8.1v82.8h-8.1z"/><path d="M52 942.6h122.8v8.1H52zM418.8 40.2h298.9v98.7H418.8z"/></svg>