<svg xmlns="http://www.w3.org/2000/svg" viewBox="0 0 100 100"><path d="M91.542 72.918c.164 0 2.12 2.13 2.616 2.615.328.49.812 1.31.488 2.456-.488 1.144-1.148 7.192-1.148 8.495 0 1.31.164 5.72.164 6.05 0 .49.164.813.164 1.142-.164.164-.483.656-.812.816-.333.168-.98.656-.98.656s.98 1.96 1.144 2.45c-.98 1.144-3.76 2.124-5.232 2.124-1.312 0-2.124-.327-2.124-1.302 0-.82 1.308-2.457 1.955-3.108.497-.652 1.144-4.084 1.144-7.027 0-2.78-.974-6.865-3.097-9.48-3.113 5.72-3.93 10.953-3.76 14.385-1.31.158-1.96.98-2.453 2.123-.652 1.145-1.642 2.125-4.248 2.125-1.31 0-1.8-.328-1.97-.488 0-.168.17-.656.66-.984.32-.488 3.27-5.063 3.762-6.048.482-.975.98-3.104.98-3.92 0-.984 0-3.432-1.145-3.6-1.31-.324-1.475 1.64-2.135 1.64-.647-.167-.155-1.144-.98-1.31-.812-.16-1.955-.49-2.288.327-.328.816-.647 1.31-1.14.492-.492-.653-.492-1.31-.492-1.638-1.964-1.145-2.61-1.96-2.94-2.45-.496-.493-1.804-1.962-1.804-1.962-2.287.164-4.74.324-5.55.324-.98 0-3.432-.16-4.412-.16-1.145 0-2.29.16-3.597.16-1.144 0-2.95-.325-3.596-.49-.496-.163-.66-.163-1.144 0-.66.165-1.145.49-1.145 1.146-.164.488-.66 1.63-.66 2.45v1.798c.168.328.98 2.13.98 2.615 0 .49-.813.983-1.145 1.636-.32.815-1.31 2.29-1.145 4.083 0 1.637.333 2.287.333 3.27 0 .49.492.98-.333.98-.812.164-.812.492-.976 1.145-.33.492-.33.98-.98 1.473-.66.323-2.615 1.144-3.76 1.144-1.144.165-1.476 0-1.64-.49-.155-.487.164-1.144.824-1.632.816-.492 1.145-.492 1.31-1.145.318-.815.814-3.106.978-3.76.164-.815.324-3.923.324-4.575 0-.82 0-2.13-.16-2.943-.328-.657-.66-2.618-.66-2.618-.324 1.8-1.31 5.068-1.628 5.232-.493.328-.825.652-.99 1.145-.154.327-.482 3.103-.81 4.087-.17.816-.334 3.92-.493 4.247-.324.16-.984.16-1.304.488-.49.328-.99 1.312-1.636 1.8-.66.487-1.64.98-2.616.98-1.144 0-1.796-.165-1.96-.493-.164-.325-.164-.653 0-.976.324-.328 2.288-1.8 2.616-2.29.155-.495 1.3-2.613 1.464-3.27.164-.657 1.477-5.393 1.477-6.05 0-.655-.333-1.308-.492-2.122 0-.82-.16-3.438-.16-4.412 0-.82 0-1.145-.824-1.145-.647 0-1.628 0-2.12-.167-.49-.324-1.31-1.145-1.796-1.797-.66-1.31-1.144-2.122-1.308-2.61-.164-.656-1.31-3.93-1.805-5.232-.646-1.145-2.28-4.09-3.1-5.232-.822-.98-2.286-2.615-3.11-3.432-.812-.815-1.956-.984-2.936-1.308-.98-.164-2.452.164-3.76 0-1.478-.328-2.785-.492-3.597-.82-.816-.324-2.616-1.145-3.432-1.304-.825-.164-2.78.16-3.113-.164-.32-.328-.483-.82-.812-1.308-.33-.657-.65-.816-.814-.985-.323-.16-.656-.16-.656-.647 0-.497.164-.656.66-1.312.816-.98 2.453-2.123 2.772-2.775.496-.49.824-1.143 1.308-1.635.497-.493 1.805-1.146 2.452-1.797.496-.656 3.276-3.433 3.93-3.925.49-.492 2.575-1.672 2.575-1.672 1.095-.927 4.368-.11 4.78-.29.484 0 .648-.16 1.145-.49.328-.327 1.956-1.143 2.94-1.143.82 0 1.302.65 1.466.98.333.323.497.98 0 1.467-.482.496-.974.496-1.307.655-.48.163-.977.327-.977.815 0 .33.168.493.98.493.823.164 4.42.492 6.046.492 4.256.16 13.24.65 16.353.98 2.936.323 6.865.815 9.964 1.144 3.112.322 4.744.322 7.688.322 2.78 0 9.808-.323 11.932-.815 3.108-.327 7.023-.487 8.828-.65 1.79-.165 4.74-.33 6.048.49 1.467.817 3.432 2.29 4.243 3.76.82 1.634.82 1.47 1.144 3.106.167 1.632.824 4.576 1.143 5.883.333 1.31.333 2.61.333 4.083 0 1.472.328 4.416.328 6.048 0 .493 0 1.313.816 1.473.656.328.976.492 1.308 1.145.328.492.812.492.976 1.47.168.98.168 1.802 0 2.618-.164.814-.647.98-.812 2.45-.164 1.146-.497 3.105-.66 4.085-.32-1.144-.98-1.472-.98-2.286 0-.98-.484-3.27-.813-4.247-.166-.984-1.643-1.637-1.643-2.29-.164-.813-.164-1.47 0-1.958.333-.493.497-.657.333-1.313-.163-.816-.496-4.084-.496-4.905 0-.815-.483-7.844-.647-8.664-.164-.975-1.144-4.576-1.144-4.576.164 2.944.328 7.032.328 8.176v5.884c-.162 1.145.157 3.756-.49 4.905-.652 1.31-.98 1.795-.98 1.795z"/></svg>