<svg xmlns="http://www.w3.org/2000/svg" viewBox="0 0 364.3 174.9"><path fill="#FFF" d="M44.8 91.7C48.2 83.4 53 75.4 59.2 68c.4.9.9 1.7 1.3 2.6-6 7.4-10.6 15.4-13.8 23.6-.6-.8-1.3-1.7-1.9-2.5zM42.2 125c-1-.9-1.9-1.9-2.9-2.9-.4-9 1.1-18.4 4.4-27.5.6.8 1.3 1.7 1.9 2.5-3.1 9.4-4.3 18.9-3.4 27.9zM42.8 129.1c1.3 7.4 4 14.5 8.4 20.9-1.7-.9-3.3-1.8-4.8-2.8-3.6-6.5-5.8-13.6-6.6-20.9.9.9 1.9 1.9 3 2.8zM62.3 68.4c-.4-.8-.9-1.7-1.3-2.6 4.3-4.8 9.2-9.4 14.6-13.5v3.4c-4.9 3.9-9.3 8.2-13.3 12.7zM18.4 90.1c-1.2 5.4-1.9 11.1-1.9 16.9h-.1c-.9-3.3-1.6-6.8-1.9-10.3.5-4.2 1.4-8.4 2.6-12.4.4 1.9.8 3.9 1.3 5.8zM31.9 60.8l-.6-3.6c5.5-6.8 12.1-12.7 19.5-17.2.1 1 .3 1.9.4 2.9-7.4 4.7-13.9 10.8-19.3 17.9zM19 78.8c2.5-6.7 5.9-13 10-18.6.2 1.2.4 2.5.7 3.7-4.2 6.1-7.5 13.1-9.8 20.5-.4-1.9-.7-3.7-.9-5.6zM53.4 38.5c6.9-3.8 14.4-6.6 22.3-8v2.7c-7.8 1.5-15.2 4.3-21.9 8.1-.2-.9-.3-1.9-.4-2.8z"/><path fill="#FFF" d="M53.8 41.3c1.4 9.1 3.9 17.4 7.3 24.5.4.9.9 1.7 1.3 2.6C66 75.3 70.5 81 75.7 84.8V88c-5.8-3.9-11-10-15.2-17.5-.5-.8-.9-1.7-1.3-2.6-3.7-7.3-6.4-15.9-7.9-25.2-.2-.9-.3-1.9-.4-2.9-.5-3.6-.8-7.4-.9-11.2.9-.5 1.8-.9 2.7-1.4.1 3.8.3 7.5.7 11.1.1 1.1.2 2.1.4 3zM31.3 57.1c.2 1.2.3 2.4.6 3.6 2 11.4 6.5 21.9 12.9 30.9.6.9 1.2 1.7 1.9 2.5 7.6 9.8 17.5 17.5 29 22.3v2.9c-11.8-4.7-22.1-12.4-30-22.2-.7-.8-1.3-1.7-1.9-2.5-6.7-9-11.6-19.4-14-30.9-.3-1.2-.5-2.4-.7-3.7-.7-4-1-8.2-1-12.4.9-1.2 1.8-2.3 2.7-3.4-.2 4.5 0 8.8.5 12.9zM19 78.8c.2 1.9.5 3.8.9 5.6 2.8 14.5 9.7 27.6 19.4 37.8.9 1 1.9 1.9 2.9 2.9 9.2 8.6 20.7 14.8 33.5 17.5v2.7c-12.4-2.5-23.6-8.2-32.9-16.2-1.1-.9-2.1-1.8-3.1-2.8-10.1-9.7-17.5-22.2-21.2-36.2-.5-1.9-.9-3.8-1.3-5.8-.6-3.5-1.1-7-1.2-10.6.7-3.1 1.6-6.1 2.7-9-.4 4.7-.2 9.4.3 14.1z"/><path fill="#FFF" d="M11.5 89.1c0-8.8 1.6-17.2 4.5-25 .1-.3.2-.5.3-.8 9.5-24.5 32.2-42.5 59.4-45.2v2.7c-8.2.8-15.9 3.1-23 6.6-.9.4-1.8.9-2.7 1.4-7.3 4-13.9 9.3-19.3 15.6-.9 1.1-1.9 2.2-2.7 3.4-3.9 5.1-7 10.8-9.4 16.9-1.1 2.9-2 5.9-2.7 9-1.1 5-1.8 10.1-1.8 15.4 0 2.6.2 5.1.4 7.6.4 3.5 1 7 1.9 10.3 4.6 16.8 15.4 31.1 29.8 40.2 1.6 1 3.2 1.9 4.8 2.8 7.5 3.9 15.8 6.5 24.5 7.4v2.7c-35.8-3.6-64-34.1-64-71z"/><g fill="#FFF"><path d="M139.2 76.2h2.1c-.1.5-.3 1.2-.5 2.2-1.8 8.7-4.5 13-8.2 13h-12.5l-14.7 60.3c-.1.4-.2.8-.3 1.1-.1.4-.1.7-.1 1.1 0 1.2.4 2.1 1.1 2.8.8.7 1.8 1.1 3.3 1.2l-.5 2.2H93.8c-2.1 0-3.6-.3-4.7-1.1-1-.7-1.5-1.8-1.5-3.3 0-.5 0-.9.1-1.2 0-.3.1-.5.2-.8l14.8-62.3H91c-1.6 0-2.7.2-3.5.7-.8.5-1.3 1.3-1.5 2.5h-2.2c.2-.6.3-1.5.6-2.6 1.9-8.7 5.2-13.1 9.8-13.1h39.9c1.6 0 2.8-.2 3.6-.6.7-.3 1.2-1 1.5-2.1zM144.1 79h16.3c2.7 0 4.8.7 6.3 2s2.8 4 4 8.2L184 134l11.1-48c0-.2.1-.3.1-.5v-.8c0-1-.3-1.8-1-2.4-.7-.6-1.6-.9-2.8-1.1l.4-2.2h13.8c1.6 0 2.8.3 3.6.8.8.5 1.2 1.3 1.2 2.4 0 .5 0 .8-.1 1.2 0 .3-.1.6-.2.9l-18 75.8h-10c-2.2 0-4.2-.8-6-2.4-1.7-1.6-3.1-3.9-4-6.8l-14.3-46.1-11.4 48.5s0 .1-.1.3c-.1.6-.2 1-.2 1.3 0 1 .3 1.8 1 2.3.7.5 1.8.8 3.3.9l-.5 2.2h-15.5c-1.2 0-2.2-.3-2.9-1-.7-.6-1-1.5-1-2.6 0-.2 0-.3.1-.6.1-.2.1-.5.1-.8l16.5-69c.1-.4.2-.7.2-.9v-.5c0-1-.4-1.8-1.1-2.5-.7-.6-1.7-1-3-1.2l.8-2.2zM221.9 79h38.3c5.5 0 9.7 1.4 12.6 4.1 2.9 2.8 4.4 6.7 4.4 12 0 8.1-2.1 14.8-6.3 20.1-4.2 5.3-9.6 8-16.1 8h-.2l7.1 20.6c.5 1.3 1.1 2.3 1.9 2.9.8.6 1.8.9 3.1.9.4 0 .9 0 1.3-.1.5-.1 1-.1 1.5-.3-.8 4.7-1.4 7.8-1.8 9.2-.4 1.4-.9 2.3-1.4 2.8-.4.3-1.2.5-2.5.7-1.3.2-3.2.2-5.7.2-3.7 0-6.1-.3-7.2-1-1.1-.7-2-1.9-2.5-3.7l-9-30.3h-5.9l-6.7 27.9c0 .2-.1.3-.1.5v.9c0 1.1.4 2 1.1 2.6.7.6 1.8 1 3.2 1l-.6 2.2h-17.7c-1.3 0-2.3-.3-3-.9-.7-.6-1.1-1.5-1.1-2.6 0-.3.1-.8.2-1.4v-.2L225.1 86c.1-.4.2-.7.2-.9v-.5c0-1-.3-1.8-1-2.4-.7-.6-1.7-1-2.9-1.1l.5-2.1zm19.8 11.5l-5.4 22.6h10.2c4.3 0 7.6-1.4 9.8-4.2 2.2-2.8 3.4-6.9 3.4-12.3 0-2.1-.6-3.6-1.9-4.5-1.3-1-3.2-1.5-5.9-1.5h-10.2zM290.4 79h18c1.2 0 2.1.2 2.8.7.6.5 1 1.1 1 2 0 .2 0 .3-.1.5 0 .2-.1.5-.2.8l-17.1 69.6c0 .2-.1.4-.1.6v.9c0 1.1.4 2 1.1 2.7.7.6 1.8 1 3.3 1.1l-.5 2.2h-17.8c-1.3 0-2.3-.3-3-.9-.7-.6-1.1-1.5-1.1-2.6 0-.3.1-.8.2-1.4v-.2l16.6-68.9c.1-.4.2-.7.2-.9v-.5c0-.9-.4-1.7-1.1-2.3-.7-.6-1.7-1-3-1.2l.8-2.2zM340.3 79h24l-1.8 8.3c-.3 1.6-1 2.8-1.9 3.6-.9.8-2.1 1.2-3.7 1.2h-13.5c-2.9 0-5.3 1-7.1 2.9-1.8 1.9-2.6 4.4-2.6 7.5 0 1.2.4 2.2 1.2 3.1.8.9 2.3 1.9 4.3 2.9l12.2 5.8c3.3 1.6 5.7 3.6 7.3 6.1 1.5 2.5 2.3 5.6 2.3 9.4 0 9.6-2.4 17.1-7.2 22.4-4.8 5.3-11.5 7.9-20.3 7.9h-17.1c-4.4 0-7.3-.3-8.8-1-1.5-.7-2.2-1.9-2.2-3.6 0-.3.1-.9.2-1.7 0-.2.1-.3.1-.4l2.5-10.5h2c.2 1.7.7 2.9 1.5 3.6.9.7 2.3 1.1 4.5 1.1H330c4.3 0 7.8-1.3 10.5-4s4-6.1 4-10.4c0-1.6-.4-2.9-1.3-4-.8-1.1-2.2-2-4.1-2.9l-14.1-6.2c-2.7-1.3-4.7-2.9-6-5-1.2-2.1-1.9-4.9-1.9-8.3 0-8.6 2-15.4 6.1-20.3 4.3-5 10-7.5 17.1-7.5z"/></g><g><path fill="#FFF" d="M103 18c-1.9.1-18.7.5-18.7.5s11.1 9.7 12.8 11.3c-1 2.2-8.8 18.8-8.8 18.8s16.2-10 18.1-11.2c1.7 1.3 13.4 10.4 13.4 10.4s-2-15.7-2.2-17.7C119.3 29 135 18.3 135 18.3s-16.8-.3-19.3-.3c-.4-2.5-3.3-18-3.3-18s-8.5 16.3-9.4 18zm2.4 3.8s3.1-5.9 5.3-10c.7 4 1.8 10 1.8 10s6.1.1 10.3.2c-3.9 2.6-9.3 6.3-9.3 6.3s.8 6.5 1.3 10.7c-3.2-2.5-8.1-6.3-8.1-6.3s-5.3 3.3-9.2 5.7c1.9-4 4.5-9.6 4.5-9.6s-4.6-4-7.6-6.7c4.3-.1 11-.3 11-.3z"/></g></svg>