<svg xmlns="http://www.w3.org/2000/svg" viewBox="0 0 333.99 183.4"><defs><style>.cls-1{fill:#7ebd73;}.cls-1,.cls-2,.cls-3,.cls-4{stroke-width:0px;}.cls-2{fill:#ffc500;}.cls-3{fill:#e9824f;}.cls-4{fill:#007db8;}</style></defs><g id="Blue"><path class="cls-4" d="M104.01,91.67s-.11-.03-.16,0c-3.23,1.85-6,6.17-8.23,9.65-.68,1.07-1.33,2.07-1.97,3-4.83,6.94-9.96,11.58-17.71,16-5.74,3.28-10.14,10.12-12.26,13.91-.04.06-.02.14.03.19l8.68,8.09s.07.04.11.04.08-.01.11-.04l31.43-29.3s.05-.07.05-.12v-21.29c0-.06-.03-.11-.08-.14Z"></path><path class="cls-4" d="M227.65,86.57v22.61c0,.13-.1.23-.23.23h-5.25c-.09,0-.16-.05-.2-.12l-2.46-4.61c-3.11,3.65-7.37,5.5-12.68,5.5-12.55,0-21.66-8.71-21.66-20.71s9.13-21.54,21.72-21.54c7.51,0,14.11,3.2,17.68,8.57.04.06.05.13.03.19s-.06.12-.12.15l-9.08,4.34c-.1.05-.23.02-.29-.07-2.14-3.02-5.52-3.66-7.98-3.66-6.8,0-11.37,4.74-11.37,11.78,0,6.59,4.81,11.37,11.43,11.37,4.3,0,7.79-2.06,9.86-5.82l-6.99-.11c-.13,0-.23-.11-.23-.23v-7.87c0-.13.1-.23.23-.23h17.37c.13,0,.23.1.23.23ZM184.06,80.5c-.04-.08-.12-.12-.21-.12h-10.95c-.08,0-.15.04-.19.1l-5.14,7.31-5.2-7.31c-.04-.06-.11-.1-.19-.1h-10.95c-.09,0-.17.05-.21.12-.04.08-.03.17.02.24l9.97,14.25-9.97,14.19c-.05.07-.06.16-.02.24s.12.13.21.13h10.6c.08,0,.15-.04.19-.1l5.55-7.95,5.55,7.95c.04.06.11.1.19.1h10.54c.09,0,.17-.05.21-.13.04-.08.03-.17-.02-.24l-9.96-14.12,9.96-14.32c.05-.07.06-.16.02-.24ZM154.54,77.87v-8.94c0-.13-.1-.23-.23-.23h-35.63c-.13,0-.23.1-.23.23v8.94c0,.13.1.23.23.23h12.61v31.08c0,.13.1.23.23.23h9.94c.13,0,.23-.1.23-.23v-31.08h12.61c.13,0,.23-.1.23-.23ZM293.01,89.06c0,5.75-2.19,11.08-6.17,15.01-4,3.95-9.46,6.12-15.37,6.12s-11.37-2.17-15.37-6.12c-3.98-3.93-6.17-9.26-6.17-15.01s2.19-11.08,6.17-15.01c4-3.95,9.46-6.12,15.37-6.12s11.37,2.17,15.37,6.12c3.98,3.93,6.17,9.26,6.17,15.01ZM282.43,89.06c0-6.45-4.71-11.31-10.95-11.31s-10.96,4.86-10.96,11.31,4.71,11.31,10.96,11.31,10.95-4.86,10.95-11.31ZM245.36,68.7h-10c-.13,0-.23.1-.23.23v40.25c0,.13.1.23.23.23h10c.13,0,.23-.1.23-.23v-40.25c0-.13-.1-.23-.23-.23Z"></path></g><g id="Green"><path class="cls-1" d="M103.41,57.72v7.25c0,.09-.07.16-.16.16h-21.51c-.07,0-.13-.05-.15-.12-.22-.85-.55-1.66-1-2.42-.04-.06-.03-.14.02-.19l13.74-13.74c.05-.05.14-.06.2-.02,6.03,4.21,8.8,8.96,8.83,9.01.01.02.02.05.02.08Z"></path><path class="cls-1" d="M90.81,45.14c0,.05,0,.1-.04.14l-13.17,13.17s-.07.05-.11.05c-.03,0-.06,0-.08-.02-1.49-.89-3.19-1.36-4.92-1.36s-3.39.46-4.87,1.33c-.06.04-.14.03-.19-.02l-13.16-13.15s-.05-.09-.04-.14c0-.05.04-.09.09-.12,5.45-2.77,11.57-4.17,18.2-4.17s12.77,1.41,18.23,4.19c.05.02.08.07.09.12Z"></path><path class="cls-1" d="M64.22,61.82c-.48.79-.83,1.65-1.06,2.53-.02.07-.08.12-.15.12h-21.92c-.09,0-.16-.07-.16-.16v-7.41s0-.06.02-.08c.03-.05,2.86-4.92,9.04-9.23.06-.04.15-.04.2.02l14.01,14.01c.05.05.06.13.02.2Z"></path><path class="cls-1" d="M103.25,69.57h-21.51c-.07,0-.13.05-.15.12-.22.84-.55,1.66-1,2.42-.04.06-.03.14.02.19l10.11,10.11s.07.05.11.05.08-.02.11-.05l12.42-12.42s.05-.07.05-.11v-.15c0-.09-.07-.16-.16-.16Z"></path><path class="cls-1" d="M64.4,72.16c-.46-.78-.81-1.61-1.04-2.48-.02-.07-.08-.12-.15-.12h-21.45c-.09,0-.16.07-.16.16v25.02c0,.06.04.12.1.14.02,0,.04.01.06.01.04,0,.08-.02.11-.05l22.5-22.5c.05-.05.06-.13.02-.19Z"></path></g><g id="Orange"><path class="cls-3" d="M87.96,85.45s-.02.08-.05.11l-15.38,15.37s-.07.05-.11.05-.08-.02-.11-.05l-15.29-15.26s-.05-.07-.05-.11.02-.08.05-.11l10.4-10.4c.05-.05.13-.06.19-.02,1.47.87,3.16,1.33,4.87,1.33s3.44-.47,4.92-1.36c.06-.04.14-.03.2.02l10.32,10.32s.05.07.05.11ZM69.1,104.15l-15.29-15.26c-.06-.06-.16-.06-.23,0l-12.61,12.61s-.05.07-.05.11v11.49s.02.09.05.12l9.86,9.2s.07.04.11.04.08-.02.11-.05l18.04-18.04s.05-.07.05-.11-.02-.08-.05-.11Z"></path></g><g id="Yellow"><path class="cls-2" d="M104.09,76.19v10.33c0,.07-.05.13-.11.15-5.44,1.68-9.17,7.51-12.17,12.19-.67,1.04-1.29,2.01-1.88,2.86-4.41,6.34-9.12,10.59-16.23,14.65-4.7,2.68-9.45,7.87-13.38,14.6-.02.04-.07.07-.11.08,0,0-.02,0-.02,0-.04,0-.08-.02-.11-.04l-5.67-5.28s-.05-.07-.05-.11.02-.09.05-.12l49.43-49.43s.11-.06.17-.03c.06.02.1.08.1.15ZM77.23,65.47c-.1-.38-.24-.74-.42-1.08-.02-.03-.03-.06-.05-.08-.14-.25-.3-.48-.48-.7-.2-.24-.42-.47-.67-.67-.49-.4-1.05-.71-1.67-.9-.04-.01-.08-.02-.12-.03-.43-.12-.88-.19-1.34-.19-.22,0-.44.02-.65.05-.21.03-.42.07-.62.13-.38.1-.74.24-1.08.42-.14.08-.27.16-.41.25-.39.27-.74.59-1.05.95-.18.22-.34.45-.48.7-.19.34-.35.7-.46,1.09-.12.43-.19.87-.19,1.34s.07.91.19,1.34c.11.38.26.75.46,1.09.14.25.3.48.48.7.3.36.65.68,1.05.95.13.09.27.17.41.25.34.18.7.32,1.08.42.2.05.41.1.62.13.21.03.43.04.65.04.46,0,.91-.07,1.34-.19.04-.01.08-.02.12-.03.62-.19,1.18-.5,1.67-.9.24-.2.47-.42.67-.67.18-.22.34-.45.48-.7.02-.03.04-.06.05-.08.18-.34.32-.7.42-1.08.11-.41.17-.83.17-1.27s-.06-.86-.17-1.27Z"></path></g></svg>
