<?xml version="1.0" encoding="UTF-8"?><svg id="White" xmlns="http://www.w3.org/2000/svg" viewBox="0 0 333.99 183.4"><defs><style>.cls-1{fill:#fff;stroke-width:0px;}</style></defs><path class="cls-1" d="M104.09,91.81v21.29s-.02.09-.05.12l-31.43,29.3s-.07.04-.11.04-.08-.01-.11-.04l-8.68-8.09c-.05-.05-.07-.13-.03-.19,2.12-3.79,6.52-10.64,12.26-13.91,7.75-4.43,12.88-9.06,17.71-16,.65-.93,1.29-1.93,1.97-3,2.23-3.48,5-7.8,8.23-9.65.05-.03.11-.03.16,0,.05.03.08.08.08.14ZM227.42,86.34h-17.37c-.13,0-.23.1-.23.23v7.87c0,.13.1.23.23.23l6.99.11c-2.07,3.75-5.55,5.82-9.86,5.82-6.62,0-11.43-4.78-11.43-11.37,0-7.05,4.57-11.78,11.37-11.78,2.46,0,5.83.63,7.98,3.66.07.09.19.12.29.07l9.08-4.34c.06-.03.11-.08.12-.15s0-.13-.03-.19c-3.56-5.37-10.17-8.57-17.68-8.57-12.58,0-21.72,9.06-21.72,21.54s9.11,20.71,21.66,20.71c5.31,0,9.58-1.85,12.68-5.5l2.46,4.61c.04.08.12.12.2.12h5.25c.13,0,.23-.1.23-.23v-22.61c0-.13-.1-.23-.23-.23ZM184.04,80.74l-9.96,14.32,9.96,14.12c.05.07.06.16.02.24-.04.08-.12.13-.21.13h-10.54c-.08,0-.15-.04-.19-.1l-5.55-7.95-5.55,7.95c-.04.06-.11.1-.19.1h-10.6c-.09,0-.17-.05-.21-.13s-.03-.17.02-.24l9.97-14.19-9.97-14.25c-.05-.07-.06-.16-.02-.24.04-.08.12-.12.21-.12h10.95c.08,0,.15.04.19.1l5.2,7.31,5.14-7.31c.04-.06.11-.1.19-.1h10.95c.09,0,.17.05.21.12.04.08.03.17-.02.24ZM154.31,78.1h-12.61v31.08c0,.13-.1.23-.23.23h-9.94c-.13,0-.23-.1-.23-.23v-31.08h-12.61c-.13,0-.23-.1-.23-.23v-8.94c0-.13.1-.23.23-.23h35.63c.13,0,.23.1.23.23v8.94c0,.13-.1.23-.23.23ZM286.84,74.05c-4-3.95-9.46-6.12-15.37-6.12s-11.37,2.17-15.37,6.12c-3.98,3.93-6.17,9.26-6.17,15.01s2.19,11.08,6.17,15.01c4,3.95,9.46,6.12,15.37,6.12s11.37-2.17,15.37-6.12c3.98-3.93,6.17-9.26,6.17-15.01s-2.19-11.08-6.17-15.01ZM271.47,100.37c-6.25,0-10.96-4.86-10.96-11.31s4.71-11.31,10.96-11.31,10.95,4.86,10.95,11.31-4.71,11.31-10.95,11.31ZM245.59,68.93v40.25c0,.13-.1.23-.23.23h-10c-.13,0-.23-.1-.23-.23v-40.25c0-.13.1-.23.23-.23h10c.13,0,.23.1.23.23ZM103.39,57.64s-2.8-4.8-8.83-9.01c-.06-.04-.15-.04-.2.02l-13.74,13.74c-.05.05-.06.13-.02.19.45.76.79,1.58,1,2.42.02.07.08.12.15.12h21.51c.09,0,.16-.07.16-.16v-7.25s0-.05-.02-.08ZM90.73,45.03c-5.46-2.78-11.59-4.19-18.23-4.19s-12.75,1.4-18.2,4.17c-.05.02-.08.07-.09.12,0,.05,0,.1.04.14l13.16,13.15c.05.05.13.06.19.02,1.47-.87,3.16-1.33,4.87-1.33s3.44.47,4.92,1.36c.03.02.05.02.08.02.04,0,.08-.02.11-.05l13.17-13.17s.05-.09.04-.14c0-.05-.04-.09-.09-.12ZM64.19,61.62l-14.01-14.01c-.05-.05-.14-.06-.2-.02-6.18,4.31-9.01,9.18-9.04,9.23-.01.02-.02.05-.02.08v7.41c0,.09.07.16.16.16h21.92c.07,0,.14-.05.15-.12.23-.89.58-1.74,1.06-2.53.04-.06.03-.14-.02-.2ZM103.25,69.57h-21.51c-.07,0-.13.05-.15.12-.22.84-.55,1.66-1,2.42-.04.06-.03.14.02.19l10.11,10.11s.07.05.11.05.08-.02.11-.05l12.42-12.42s.05-.07.05-.11v-.15c0-.09-.07-.16-.16-.16ZM64.4,72.16c-.46-.78-.81-1.61-1.04-2.48-.02-.07-.08-.12-.15-.12h-21.45c-.09,0-.16.07-.16.16v25.02c0,.06.04.12.1.14.02,0,.04.01.06.01.04,0,.08-.02.11-.05l22.5-22.5c.05-.05.06-.13.02-.19ZM87.91,85.34l-10.32-10.32c-.05-.05-.13-.06-.2-.02-1.49.89-3.19,1.36-4.92,1.36s-3.39-.46-4.87-1.33c-.06-.04-.14-.03-.19.02l-10.4,10.4s-.05.07-.05.11.02.08.05.11l15.29,15.26s.07.05.11.05.08-.02.11-.05l15.38-15.37s.05-.07.05-.11-.02-.08-.05-.11ZM69.15,104.26s-.02.08-.05.11l-18.04,18.04s-.07.05-.11.05-.08-.01-.11-.04l-9.86-9.2s-.05-.07-.05-.12v-11.49s.02-.08.05-.11l12.61-12.61c.06-.06.16-.06.23,0l15.29,15.26s.05.07.05.11ZM103.99,76.05c-.06-.02-.13-.01-.17.03l-49.43,49.43s-.05.07-.05.12.02.08.05.11l5.67,5.28s.07.04.11.04c0,0,.02,0,.02,0,.05,0,.09-.04.11-.08,3.93-6.74,8.69-11.92,13.38-14.6,7.12-4.07,11.82-8.31,16.23-14.65.59-.85,1.21-1.82,1.88-2.86,3-4.68,6.74-10.51,12.17-12.19.07-.02.11-.08.11-.15v-10.33c0-.06-.04-.12-.1-.15ZM77.4,66.74c0,.44-.06.86-.17,1.27-.1.38-.24.74-.42,1.08-.02.03-.03.06-.05.08-.14.25-.3.48-.48.7-.2.24-.42.47-.67.67-.49.4-1.05.71-1.67.9-.04.01-.08.02-.12.03-.43.12-.87.19-1.34.19-.22,0-.44-.02-.65-.04-.21-.03-.42-.07-.62-.13-.38-.1-.74-.24-1.08-.42-.14-.08-.27-.16-.41-.25-.39-.27-.74-.59-1.05-.95-.18-.22-.34-.45-.48-.7-.19-.34-.35-.7-.46-1.09-.12-.43-.19-.87-.19-1.34s.07-.91.19-1.34c.11-.38.26-.75.46-1.09.14-.25.3-.48.48-.7.3-.36.65-.68,1.05-.95.13-.09.27-.17.41-.25.34-.18.7-.32,1.08-.42.2-.05.41-.1.62-.13.21-.03.43-.05.65-.05.47,0,.91.07,1.34.19.04.01.08.02.12.03.62.19,1.18.5,1.67.9.24.2.47.42.67.67.18.22.34.45.48.7.02.03.04.06.05.08.18.34.32.7.42,1.08.11.4.17.83.17,1.27Z"/></svg>